<mxfile host="app.diagrams.net" modified="2023-04-20T12:32:03.821Z" agent="Mozilla/5.0 (Windows NT 10.0; Win64; x64) AppleWebKit/537.36 (KHTML, like Gecko) Chrome/112.0.0.0 Safari/537.36 Edg/112.0.1722.48" etag="xoF5AkVuPgqgYczIS1Iz" version="21.2.1" type="github">
  <diagram name="第 1 页" id="3dAJ_bdmcQAG2Z_Yx6dc">
    <mxGraphModel dx="1050" dy="573" grid="1" gridSize="10" guides="1" tooltips="1" connect="1" arrows="1" fold="1" page="1" pageScale="1" pageWidth="827" pageHeight="1169" math="0" shadow="0">
      <root>
        <mxCell id="0" />
        <mxCell id="1" parent="0" />
        <mxCell id="Fc3a45D2DgOrqzQobnSs-1" value="系统管理员" style="shape=umlActor;verticalLabelPosition=bottom;verticalAlign=top;html=1;outlineConnect=0;" vertex="1" parent="1">
          <mxGeometry x="230" y="270" width="30" height="60" as="geometry" />
        </mxCell>
        <mxCell id="Fc3a45D2DgOrqzQobnSs-2" value="" style="endArrow=classic;html=1;rounded=0;" edge="1" parent="1" target="Fc3a45D2DgOrqzQobnSs-3">
          <mxGeometry width="50" height="50" relative="1" as="geometry">
            <mxPoint x="270" y="290" as="sourcePoint" />
            <mxPoint x="320" y="240" as="targetPoint" />
          </mxGeometry>
        </mxCell>
        <mxCell id="Fc3a45D2DgOrqzQobnSs-3" value="配置系统" style="ellipse;whiteSpace=wrap;html=1;" vertex="1" parent="1">
          <mxGeometry x="359" y="170" width="110" height="70" as="geometry" />
        </mxCell>
        <mxCell id="Fc3a45D2DgOrqzQobnSs-4" value="" style="endArrow=classic;html=1;rounded=0;" edge="1" parent="1" source="Fc3a45D2DgOrqzQobnSs-1" target="Fc3a45D2DgOrqzQobnSs-5">
          <mxGeometry width="50" height="50" relative="1" as="geometry">
            <mxPoint x="390" y="320" as="sourcePoint" />
            <mxPoint x="360" y="290" as="targetPoint" />
          </mxGeometry>
        </mxCell>
        <mxCell id="Fc3a45D2DgOrqzQobnSs-5" value="管理角色" style="ellipse;whiteSpace=wrap;html=1;" vertex="1" parent="1">
          <mxGeometry x="359" y="270" width="110" height="60" as="geometry" />
        </mxCell>
        <mxCell id="Fc3a45D2DgOrqzQobnSs-6" value="" style="endArrow=classic;html=1;rounded=0;" edge="1" parent="1" source="Fc3a45D2DgOrqzQobnSs-1" target="Fc3a45D2DgOrqzQobnSs-7">
          <mxGeometry width="50" height="50" relative="1" as="geometry">
            <mxPoint x="390" y="320" as="sourcePoint" />
            <mxPoint x="370" y="350" as="targetPoint" />
          </mxGeometry>
        </mxCell>
        <mxCell id="Fc3a45D2DgOrqzQobnSs-7" value="管理机构" style="ellipse;whiteSpace=wrap;html=1;" vertex="1" parent="1">
          <mxGeometry x="359" y="360" width="110" height="60" as="geometry" />
        </mxCell>
        <mxCell id="Fc3a45D2DgOrqzQobnSs-8" value="" style="endArrow=classic;html=1;rounded=0;" edge="1" parent="1" source="Fc3a45D2DgOrqzQobnSs-1" target="Fc3a45D2DgOrqzQobnSs-9">
          <mxGeometry width="50" height="50" relative="1" as="geometry">
            <mxPoint x="390" y="320" as="sourcePoint" />
            <mxPoint x="360" y="460" as="targetPoint" />
          </mxGeometry>
        </mxCell>
        <mxCell id="Fc3a45D2DgOrqzQobnSs-9" value="管理日志" style="ellipse;whiteSpace=wrap;html=1;" vertex="1" parent="1">
          <mxGeometry x="359" y="450" width="110" height="60" as="geometry" />
        </mxCell>
      </root>
    </mxGraphModel>
  </diagram>
</mxfile>
